# AST/ASF file generated using VICON BodyLanguage
# -----------------------------------------------
:version 1.10
:name VICON
:units
  mass 1.0
  length 0.45
  angle deg
:documentation
   .ast/.asf automatically generated from VICON data using
   VICON BodyBuilder and BodyLanguage model FoxedUp or BRILLIANT.MOD
:root
   order TX TY TZ RX RY RZ
   axis XYZ
   position 0 0 0  
   orientation 0 0 0 
:bonedata
  begin
     id 1 
     name lhipjoint
     direction 0.822369 -0.411937 0.392449 
     length 3.8167 
     axis 0 0 0  XYZ
  end
  begin
     id 2 
     name lfemur
     direction 0.34202 -0.939693 0  
     length 6.16791  
     axis 0 0 20  XYZ
    dof rx ry rz
    limits (-160.0 20.0)
           (-70.0 70.0)
           (-60.0 70.0)
  end
  begin
     id 3 
     name ltibia
     direction 0.34202 -0.939693 0   
     length 7.07101   
     axis 0 0 20   XYZ
    dof rx
    limits (-10.0 170.0)
  end
  begin
     id 4 
     name lfoot
     direction 0.028254 -0.0776273 0.996582   
     length 1.66799   
     axis -90 7.62852e-016 20   XYZ
    dof rx rz
    limits (-45.0 90.0)
           (-70.0 20.0)
  end
  begin
     id 5 
     name ltoes
     direction 1.53483e-011 -4.21688e-011 1   
     length 0.851674   
     axis -90 7.62852e-016 20   XYZ
    dof rx
    limits (-90.0 20.0)
  end
  begin
     id 6 
     name rhipjoint
     direction -0.822466 -0.411836 0.392353   
     length 3.81764  
     axis 0 0 0  XYZ 
  end
  begin
     id 7 
     name rfemur
     direction -0.34202 -0.939693 0   
     length 6.28636   
     axis 0 0 -20   XYZ
    dof rx ry rz
    limits (-160.0 20.0)
           (-70.0 70.0)
           (-70.0 60.0)
  end
  begin
     id 8 
     name rtibia
     direction -0.34202 -0.939693 0   
     length 6.85621   
     axis 0 0 -20   XYZ
    dof rx
    limits (-10.0 170.0)
 end
 begin
     id 9 
     name rfoot
     direction -0.0553036 -0.151945 0.98684   
     length 1.57293  
     axis -90 -7.62852e-016 -20   XYZ
    dof rx rz
    limits (-45.0 90.0)
           (-20.0 70.0)
  end
  begin
     id 10 
     name rtoes
     direction -1.53592e-011 -4.21964e-011 1   
     length 0.802812   
     axis -90 -7.62852e-016 -20   XYZ
    dof rx
    limits (-90.0 20.0)
  end
  begin
     id 11 
     name lowerback
     direction 0.00654913 0.996475 -0.0836396   
     length 1.97212   
     axis 0 0 0   XYZ
    dof rx ry rz
    limits (-20.0 45.0)
           (-30.0 30.0)
           (-30.0 30.0)
  end
  begin
     id 12 
     name upperback
     direction 0.0111875 0.994527 0.103877   
     length 1.89704   
     axis 0 0 0   XYZ
    dof rx ry rz
    limits (-20.0 45.0)
           (-30.0 30.0)
           (-30.0 30.0)
  end
  begin
     id 13 
     name thorax
     direction 0.00473652 0.989004 0.147814   
     length 1.94516   
     axis 0 0 0   XYZ
    dof rx ry rz
    limits (-20.0 45.0)
           (-30.0 30.0)
           (-30.0 30.0)
  end
  begin
     id 14 
     name lowerneck
     direction -0.00925808 0.999011 0.0434791   
     length 1.81771   
     axis 0 0 0   XYZ
    dof rx ry rz
    limits (-20.0 45.0)
           (-30.0 30.0)
           (-30.0 30.0)
  end
  begin
     id 15 
     name upperneck
     direction 0.00451595 0.964412 -0.264365   
     length 1.80434   
     axis 0 0 0   XYZ
    dof rx ry rz
    limits (-20.0 45.0)
           (-30.0 30.0)
           (-30.0 30.0)
  end
  begin
     id 16
     name head
     direction -0.00110849 0.995756 -0.0920241  
     length 1.84006  
     axis 0 0 0   XYZ
    dof rx ry rz
    limits (-20.0 45.0)
           (-30.0 30.0)
           (-30.0 30.0)
  end
  begin
     id 17 
     name lclavicle
     direction 0.921253 0.385213 0.0538957  
     length 3.67415  
     axis 0 0 0   XYZ
    dof ry rz
    limits (-20.0 10.0)
           (0.0 20.0)
  end
  begin
     id 18 
     name lhumerus
     direction 1 -4.48961e-011 6.73441e-028   
     length 4.32712   
     axis 180 -30 -90   XYZ
    dof rx ry rz
    limits (-60.0 90.0)
           (-90.0 90.0)
           (-90.0 90.0)
  end
  begin
     id 19
     name lradius
     direction 1 -4.48985e-011 -9.53507e-028   
     length 3.28587   
     axis 180 -30 -90   XYZ
    dof rx
    limits (-10.0 170.0)
  end
  begin
     id 20
     name lwrist
     direction 1 -4.48951e-011 -4.67472e-027   
     length 1.64293   
     axis 1.65735e-015 90 90   XYZ
    dof ry
    limits (-180.0 0.0)
 end
  begin
     id 21 
     name lhand
     direction 1 -4.48946e-011 -9.34945e-027   
     length 0.433158   
     axis 5.96574e-015 90 90   XYZ
    dof rx rz
    limits (-90.0 90.0)
           (-45.0 45.0)
  end
  begin
     id 22 
     name lfingers
     direction 1 -4.48882e-011 -1.86989e-026   
     length 0.349224   
     axis 1.19315e-014 90 90   XYZ
    dof rx
    limits (0.0 90.0)
  end
  begin
     id 23
     name lthumb
     direction 0.707107 -6.3493e-011 0.707107   
     length 0.501417   
     axis -90 45 2.85299e-015   XYZ
    dof rx rz
    limits (-45.0 45.0)
           (-45.0 45.0)
  end
  begin
     id 24 
     name rclavicle
     direction -0.884378 0.46502 -0.0403866   
     length 3.50218  
     axis 0 0 0   XYZ 
    dof ry rz
    limits (-10.0 20.0)
           (-20.0 0.0)
  end
  begin
     id 25 
     name rhumerus
     direction -1 -4.48964e-011 1.58188e-027  
     length 4.29104   
     axis 180 30 90   XYZ
    dof rx ry rz
    limits (-90.0 60.0)
           (-90.0 90.0)
           (-90.0 90.0)
  end
  begin
     id 26 
     name rradius
     direction -1 -4.48978e-011 -1.9722e-027   
     length 3.2272   
     axis 180 30 90   XYZ
    dof rx
    limits (-10.0 170.0)
  end
  begin
     id 27 
     name rwrist
     direction -1 -4.48969e-011 -4.67472e-027   
     length 1.6136   
     axis 1.65735e-015 -90 -90   XYZ
    dof ry
    limits (-180.0 0.0)
  end
  begin
     id 28
     name rhand
     direction -1 -4.48846e-011 -9.34945e-027   
     length 0.543623   
     axis 5.96574e-015 -90 -90   XYZ
    dof rx rz
    limits (-90.0 90.0)
           (-45.0 45.0)
  end
  begin
     id 29
     name rfingers
     direction -1 -4.49074e-011 -1.86989e-026   
     length 0.438283   
     axis 1.19315e-014 -90 -90   XYZ
    dof rx
    limits (0.0 90.0)
  end
  begin
     id 30
     name rthumb
     direction -0.707107 -6.34834e-011 0.707107   
     length 0.629289   
     axis -90 -45 -2.85299e-015   XYZ
    dof rx rz
    limits (-45.0 45.0)
           (-45.0 45.0)
  end
:hierarchy
  begin
    root lhipjoint rhipjoint lowerback
    lhipjoint lfemur
    lfemur ltibia
    ltibia lfoot
    lfoot ltoes
    rhipjoint rfemur
    rfemur rtibia
    rtibia rfoot
    rfoot rtoes
    lowerback upperback
    upperback thorax
    thorax lowerneck lclavicle rclavicle
    lowerneck upperneck
    upperneck head
    lclavicle lhumerus
    lhumerus lradius
    lradius lwrist
    lwrist lhand lthumb
    lhand lfingers
    rclavicle rhumerus
    rhumerus rradius
    rradius rwrist
    rwrist rhand rthumb
    rhand rfingers
  end

#!OML:ASF H:\GeneralSubjects\Female5\Project 1\Capture day 1\Session 1\Female5.ASF
:FULLY-SPECIFIED
:DEGREES
68
root -19.4029 15.9257 -3.20758 -352.674 59.1804 -362.283
lowerback 13.9395 1.91647 2.65194
upperback -10.7028 3.86443 2.0616
thorax -20.557 1.62624 -0.269882
lowerneck -10.3403 -0.382884 1.70327
upperneck 40.2824 1.82128 -3.47434
head 16.1495 1.08741 -1.3833
rclavicle -8.64713e-015 -1.59028e-014
rhumerus -50.82 27.3236 -92.9865
rradius 40.0992
rwrist -13.9632
rhand -24.617 -17.6831
rfingers 7.12502
rthumb 1.88151 -47.6546
lclavicle -8.64713e-015 -1.59028e-014
lhumerus -54.4224 2.06319 71.0372
lradius 36.0841
lwrist 0.31865
lhand -21.2804 31.3039
lfingers 7.12502
lthumb 5.10357 61.2224
rfemur -2.34414 12.8263 40.9812
rtibia 3.56485
rfoot -16.8597 -15.3364
rtoes -13.8037
lfemur -33.3422 -7.15488 -15.7987
ltibia 42.327
lfoot -29.4684 -16.2319
ltoes -23.3454
69
root -19.1577 15.9155 -3.14027 -353.444 57.6433 -362.995
lowerback 14.2153 2.02151 3.34201
upperback -10.6148 4.15623 1.96992
thorax -20.5681 1.63849 -0.863517
lowerneck -10.27 -0.214305 1.92735
upperneck 39.9256 1.99676 -3.57551
head 15.9542 1.16336 -1.43859
rclavicle -8.74653e-014 7.15625e-015
rhumerus -50.3801 27.8592 -93.6951
rradius 40.3406
rwrist -13.6641
rhand -24.7787 -18.005
rfingers 7.12502
rthumb 1.7253 -47.9778
lclavicle -8.74653e-014 7.15625e-015
lhumerus -54.559 1.81799 70.2906
lradius 36.1247
lwrist 0.503792
lhand -20.698 32.3586
lfingers 7.12502
lthumb 5.6659 62.2628
rfemur -0.894107 13.1517 41.4003
rtibia 3.2943
rfoot -17.0851 -14.6843
rtoes -13.3655
lfemur -33.7249 -9.10501 -14.5533
ltibia 38.1775
lfoot -32.4583 -14.1414
ltoes -25.2427
70
root -18.9184 15.8917 -3.07204 -353.706 55.9876 -363.521
lowerback 14.2262 2.18783 3.8852
upperback -10.6361 4.49319 1.85465
thorax -20.5425 1.69357 -1.40704
lowerneck -10.8809 0.345675 1.8096
upperneck 40.6914 2.62908 -2.77394
head 16.5291 1.5195 -0.967097
rclavicle -3.55825e-014 2.38542e-015
rhumerus -50.0511 28.3363 -94.368
rradius 40.608
rwrist -13.3964
rhand -24.8176 -18.1995
rfingers 7.12502
rthumb 1.68768 -48.1726
lclavicle -3.55825e-014 2.38542e-015
lhumerus -54.6022 1.4875 69.6609
lradius 36.0048
lwrist 0.685934
lhand -20.7569 33.144
lfingers 7.12502
lthumb 5.60907 63.0497
rfemur 0.0611594 13.7339 41.6925
rtibia 3.23341
rfoot -16.991 -14.164
rtoes -13.4374
lfemur -34.2609 -12.994 -11.748
ltibia 30.1334
lfoot -36.7243 0.753285
ltoes -36.84
71
root -18.6793 15.8652 -2.99257 -353.938 54.547 -363.98
lowerback 14.225 2.30323 4.38103
upperback -10.6463 4.74744 1.74491
thorax -20.4947 1.7211 -1.88999
lowerneck -10.5594 0.367044 2.48798
upperneck 39.9766 2.63685 -3.43125
head 16.0875 1.51632 -1.37872
rclavicle 9.03476e-014 2.54444e-014
rhumerus -49.7955 28.7531 -94.9834
rradius 40.8763
rwrist -13.1451
rhand -24.7804 -18.084
rfingers 7.12502
rthumb 1.72363 -48.0568
lclavicle 9.03476e-014 2.54444e-014
lhumerus -54.6049 1.25265 68.9894
lradius 35.7309
lwrist 0.442883
lhand -20.4641 33.5987
lfingers 7.12502
lthumb 5.89174 63.4968
rfemur 1.16278 14.5112 42.0375
rtibia 3.00705
rfoot -16.7332 -13.9233
rtoes -14.2627
lfemur -34.8995 -15.8964 -9.39127
ltibia 24.3496
lfoot -38.0487 -6.46598
ltoes -24.0507
72
root -18.4317 15.8345 -2.90368 -354.6 53.2455 -364.816
lowerback 14.2957 2.3832 5.10839
upperback -10.6477 5.02829 1.71612
thorax -20.4709 1.73618 -2.41657
lowerneck -10.9547 0.758363 2.34782
upperneck 40.4254 3.10887 -2.93802
head 16.4362 1.75602 -1.06069
rclavicle -7.78242e-014 -2.70347e-014
rhumerus -49.8072 29.0778 -95.5784
rradius 41.2672
rwrist -12.8805
rhand -24.6855 -17.8372
rfingers 7.12502
rthumb 1.81534 -47.8092
lclavicle -7.78242e-014 -2.70347e-014
lhumerus -54.7638 1.03772 68.4074
lradius 35.5707
lwrist 0.161817
lhand -20.5125 32.9646
lfingers 7.12502
lthumb 5.84504 62.864
rfemur 2.50131 15.2104 42.6645
rtibia 2.7033
rfoot -16.6484 -13.6963
rtoes -15.9627
lfemur -35.5349 -18.4055 -6.75002
ltibia 19.1132
lfoot -37.7848 0.214351
ltoes -34.3665
73
root -18.1756 15.7993 -2.80583 -355.648 51.9517 -366.017
lowerback 14.3727 2.43521 6.07095
upperback -10.5924 5.33329 1.74978
thorax -20.3561 1.74037 -3.00393
lowerneck -10.9725 0.790989 2.77616
upperneck 40.1034 3.10487 -3.2687
head 16.2829 1.75738 -1.2864
rclavicle -8.51792e-014 -4.92986e-014
rhumerus -49.9032 29.3157 -96.1479
rradius 41.7298
rwrist -12.7843
rhand -24.8387 -17.5359
rfingers 7.12502
rthumb 1.66738 -47.5091
lclavicle -8.51792e-014 -4.92986e-014
lhumerus -54.9156 0.586278 68.0777
lradius 35.4059
lwrist -0.00677095
lhand -22.4679 30.2319
lfingers 7.12502
lthumb 3.95691 60.1749
rfemur 4.01722 15.7685 43.5574
rtibia 2.33749
rfoot -16.6078 -13.3132
rtoes -17.1161
lfemur -36.0984 -20.4957 -3.94952
ltibia 14.3153
lfoot -37.435 -1.02874
ltoes -31.8442
74
root -17.9172 15.7612 -2.69665 -356.23 50.7391 -366.819
lowerback 14.7977 2.61206 6.54676
upperback -10.8469 5.77605 1.80299
thorax -20.9315 1.83898 -3.37555
lowerneck -11.5862 1.20562 2.46538
upperneck 41.0874 3.56698 -2.38543
head 16.9696 2.03134 -0.754585
rclavicle 4.50247e-014 2.26615e-014
rhumerus -50.6767 29.1683 -96.6086
rradius 42.3102
rwrist -12.969
rhand -25.125 -17.1018
rfingers 7.12502
rthumb 1.39084 -47.077
lclavicle 4.50247e-014 2.26615e-014
lhumerus -55.4149 -0.309732 68.244
lradius 35.0081
lwrist -0.493996
lhand -19.0655 33.2946
lfingers 7.12502
lthumb 7.24191 63.1507
rfemur 5.48641 16.3918 44.2163
rtibia 1.88056
rfoot -16.6521 -12.6406
rtoes -15.562
lfemur -36.8565 -22.8797 -1.26682
ltibia 10.2929
lfoot -37.6623 3.1411
ltoes -37.2568
